<svg width="13" height="9" viewBox="0 0 13 9" fill="none" xmlns="http://www.w3.org/2000/svg">
<path d="M8.01215 8.9182C7.82782 8.73416 8.00478 8.19711 8.01215 7.93638C8.02014 7.67566 7.82782 7.1386 8.01215 6.95456L9.99385 4.99091H0.0853616C-0.175772 4.99091 0.262318 5.16759 0.0853616 4.99091C-0.0909802 4.81485 0.0853616 5.25164 0.0853616 4.99091C0.0853616 4.73019 -0.0909802 4.18577 0.0853616 4.00909C0.262318 3.83302 -0.175772 4.00909 0.0853616 4.00909H9.99385L8.01215 1.06362C7.82782 0.879578 8.01215 0.335159 8.01215 0.081796C8.01215 -0.170954 7.82782 0.265837 8.01215 0.081796C8.19648 -0.102245 8.74924 0.081796 9.003 0.081796C9.25615 0.081796 9.80952 -0.102245 9.99385 0.081796L12.9664 4.00909C13.0586 4.10111 12.9277 3.90173 12.9664 4.00909C13.0045 4.11645 12.9664 4.86822 12.9664 4.99091C12.9664 5.11361 13.0045 4.88355 12.9664 4.99091C12.9277 5.09827 13.0586 4.89889 12.9664 4.99091L9.99385 8.9182C9.82488 9.08691 9.25615 8.9182 9.003 8.9182C8.74924 8.9182 8.19648 9.10225 8.01215 8.9182Z" fill="white"/>
</svg>
